<svg viewBox="NaN NaN NaN NaN" xmlns:xlink="http://www.w3.org/1999/xlink" xmlns="http://www.w3.org/2000/svg" version="1.1" style="max-height: 500px" width="NaN" height="NaN"><g style="mix-blend-mode: normal" text-anchor="none" font-size="none" font-weight="none" font-family="none" stroke-dashoffset="0" stroke-dasharray="" stroke-miterlimit="10" stroke-linejoin="miter" stroke-linecap="butt" stroke-width="1" stroke="none" fill-rule="nonzero" fill="#ffffff"><g transform="translate(-0.22272,-22.62857) scale(0.91429,0.91429)"><g transform="translate(0,280) scale(0.1,-0.1)"><path d="M375,2235c-14,-13 -25,-33 -25,-43c0,-41 34,-62 180,-113c79,-28 146,-52 148,-54c3,-3 122,-545 171,-778c30,-140 -27,-127 551,-127c481,0 497,1 515,20c22,25 22,65 0,90c-17,19 -36,20 -473,22l-456,3l-93,430c-51,236 -99,435 -106,441c-13,12 -355,134 -376,134c-6,0 -23,-11 -36,-25z"/><path d="M1895,2221c-84,-22 -154,-80 -196,-161c-35,-67 -34,-186 3,-256c53,-102 148,-159 263,-158c118,1 213,61 265,169c33,68 33,172 0,240c-30,62 -90,122 -147,147c-50,22 -141,31 -188,19zM2123,2032l27,-28l-115,-114l-115,-115l-70,70c-38,38 -70,74 -70,79c0,13 41,56 54,56c6,0 29,-18 51,-40l41,-40l79,80c44,44 82,80 85,80c4,0 18,-13 33,-28z"/><path d="M936,1954c-9,-8 -16,-27 -16,-42c0,-15 29,-148 64,-297c52,-217 69,-273 87,-287c19,-17 55,-18 438,-18c342,1 419,3 435,15c11,8 31,59 52,131c19,65 36,125 39,133c4,14 -7,16 -73,16c-130,0 -230,60 -292,176c-23,44 -34,79 -38,125l-5,64h-338c-294,0 -340,-2 -353,-16z"/><path d="M935,1043c-48,-25 -73,-53 -91,-99c-35,-92 7,-198 93,-236c127,-56 266,30 266,166c0,78 -48,149 -116,175c-41,16 -117,13 -152,-6zM1074,935c43,-40 33,-105 -21,-133c-33,-18 -59,-14 -89,12c-21,18 -28,32 -28,61c0,74 84,110 138,60z"/><path d="M1679,1031c-101,-63 -116,-201 -32,-285c44,-43 90,-60 154,-54c64,7 113,41 144,102c28,55 31,86 13,137c-40,119 -174,167 -279,100zM1835,935c46,-45 26,-127 -34,-140c-33,-7 -85,15 -95,40c-22,60 16,125 74,125c19,0 40,-9 55,-25z"/><path d="M603,95c0,-27 2,-38 4,-22c2,15 8,27 13,27c5,0 11,-12 13,-27c4,-26 4,-26 6,5c1,22 -4,32 -13,32c-8,0 -17,8 -19,18c-3,9 -5,-5 -4,-33z"/><path d="M1102,95c0,-27 2,-43 5,-35c3,8 13,24 22,35c15,18 15,19 -1,7c-14,-12 -17,-10 -21,15c-2,16 -4,6 -5,-22z"/><path d="M720,120c-4,-25 1,-54 10,-63c4,-5 5,3 3,17c-4,19 -1,26 11,26c9,0 16,-8 16,-19c0,-11 4,-22 9,-25c5,-4 7,3 4,15c-3,12 -1,24 4,28c7,4 6,11 -3,19c-8,7 -14,8 -14,2c0,-14 -27,-13 -33,3c-4,8 -6,8 -7,-3z"/><path d="M949,118c-2,-25 3,-53 11,-62c5,-5 6,1 3,14c-3,12 -1,25 4,29c7,4 6,11 -3,19c-11,10 -14,10 -15,0z"/><path d="M1500,125c-1,-5 -1,-21 0,-34c1,-13 -4,-28 -12,-32c-9,-6 -3,-9 17,-9c17,0 25,4 18,8c-6,4 -13,23 -16,42c-2,19 -5,31 -7,25z"/><path d="M1545,120c-4,-6 1,-7 11,-3c13,5 16,3 11,-10c-3,-9 -2,-19 4,-22c15,-10 -1,-27 -20,-20c-12,5 -13,4 -4,-6c19,-19 40,5 35,41c-4,29 -24,40 -37,20z"/><path d="M1607,123c-3,-5 -4,-21 -3,-38c1,-23 6,-30 21,-30c11,0 20,6 19,13c-1,6 -2,23 -2,37c-2,23 -25,35 -35,18zM1630,110c0,-5 -4,-10 -10,-10c-5,0 -10,5 -10,10c0,6 5,10 10,10c6,0 10,-4 10,-10zM1632,75c0,-5 -5,-11 -11,-13c-6,-2 -11,4 -11,13c0,9 5,15 11,13c6,-2 11,-8 11,-13z"/><path d="M1670,106c-14,-28 -8,-56 14,-56c21,0 30,33 12,46c-12,8 -13,13 -4,22c7,7 8,12 2,12c-6,0 -16,-11 -24,-24zM1698,78c-6,-18 -28,-21 -28,-4c0,9 7,16 16,16c9,0 14,-5 12,-12z"/><path d="M1738,123c7,-3 16,-2 19,1c4,3 -2,6 -13,5c-11,0 -14,-3 -6,-6z"/><path d="M1784,115c-4,-8 -1,-22 6,-30c6,-8 9,-20 5,-27c-4,-7 1,-4 9,6c9,11 16,25 16,30c1,6 8,-1 16,-16c8,-16 18,-28 23,-28c18,0 33,31 27,55c-7,29 -31,33 -45,8c-9,-17 -10,-17 -16,0c-9,21 -34,22 -41,2zM1812,105c0,-5 -5,-11 -11,-13c-6,-2 -11,4 -11,13c0,9 5,15 11,13c6,-2 11,-8 11,-13zM1875,90c0,-27 -20,-38 -28,-15c-8,20 3,47 17,42c6,-2 11,-14 11,-27z"/><path d="M1907,123c-11,-11 -8,-43 4,-43c6,0 9,-7 5,-15c-9,-25 3,-17 17,13c8,15 12,33 10,40c-5,13 -25,16 -36,5zM1932,105c0,-5 -5,-11 -11,-13c-6,-2 -11,4 -11,13c0,9 5,15 11,13c6,-2 11,-8 11,-13z"/><path d="M1964,115c-4,-8 -1,-22 6,-30c6,-8 9,-19 5,-25c-3,-5 -4,-10 -1,-10c10,0 33,55 29,68c-6,17 -32,15 -39,-3zM1992,105c0,-5 -5,-11 -11,-13c-6,-2 -11,4 -11,13c0,9 5,15 11,13c6,-2 11,-8 11,-13z"/><path d="M2030,106c-15,-29 -8,-56 15,-56c23,0 31,31 12,45c-12,9 -14,14 -5,23c7,7 8,12 2,12c-6,0 -16,-11 -24,-24zM2058,72c2,-7 -3,-12 -12,-12c-9,0 -16,7 -16,16c0,17 22,14 28,-4z"/><path d="M550,93c0,-10 4,-14 8,-8c4,6 11,13 16,18c5,4 2,7 -7,7c-10,0 -17,-8 -17,-17z"/><path d="M661,82c-1,-27 2,-33 17,-30c10,2 18,14 20,31c2,25 2,25 -4,2c-7,-33 -22,-32 -27,3c-4,25 -4,24 -6,-6z"/><path d="M807,104c-13,-13 -7,-24 14,-24c11,0 19,5 17,12c-5,14 -22,21 -31,12z"/><path d="M861,78c2,-28 2,-29 6,-8c3,14 10,28 17,32c7,5 5,8 -6,8c-14,0 -18,-8 -17,-32z"/><path d="M900,93c0,-10 4,-14 8,-8c4,6 11,13 16,18c5,4 2,7 -7,7c-10,0 -17,-8 -17,-17z"/><path d="M997,103c-4,-3 -7,-11 -7,-17c0,-6 5,-4 10,4c7,11 12,12 21,3c14,-14 2,-36 -18,-29c-8,3 -11,1 -8,-4c9,-15 32,-12 39,5c11,30 -17,59 -37,38z"/><path d="M1054,95c-8,-20 2,-45 18,-44c10,0 10,2 1,6c-7,2 -13,13 -13,23c0,10 6,21 13,23c9,4 9,6 -1,6c-7,1 -15,-6 -18,-14z"/><path d="M1194,95c-8,-20 2,-45 18,-44c10,0 10,2 1,6c-7,2 -13,13 -13,23c0,10 6,21 13,23c9,4 9,6 -1,6c-7,1 -15,-6 -18,-14z"/><path d="M1246,101c-3,-5 2,-8 12,-7c9,0 17,-6 17,-14c0,-8 -8,-14 -17,-14c-10,1 -15,-2 -12,-7c16,-27 50,5 38,36c-7,16 -30,20 -38,6z"/><path d="M1301,77c2,-31 2,-31 6,-4c2,15 8,27 13,27c5,0 11,-12 13,-27l4,-28l2,28c0,15 5,27 10,27c5,0 12,-12 14,-27c4,-27 4,-27 6,4c1,29 -1,31 -34,31c-33,0 -35,-2 -34,-31z"/><path d="M1720,100c0,-6 6,-10 14,-10c26,0 28,-20 4,-29c-15,-7 -17,-10 -7,-10c21,-1 40,21 31,35c-10,15 -42,25 -42,14z"/><path d="M562,65c-11,-12 -10,-15 3,-15c8,0 15,7 15,15c0,18 -2,18 -18,0z"/><path d="M912,65c-11,-12 -10,-15 3,-15c8,0 15,7 15,15c0,18 -2,18 -18,0z"/><path d="M1120,71c0,-5 5,-13 10,-16c6,-3 10,-2 10,4c0,5 -4,13 -10,16c-5,3 -10,2 -10,-4z"/><path d="M808,58c5,-5 16,-8 23,-6c8,3 3,7 -10,11c-17,4 -21,3 -13,-5z"/></g></g></g></svg>